<svg xmlns="http://www.w3.org/2000/svg">
  <!-- + eye -->
  <symbol id="eye" viewBox="0 0 24 24"><svg xmlns="http://www.w3.org/2000/svg" width="24" height="24" viewBox="0 0 24 24" fill="none" stroke="currentColor" stroke-width="2" stroke-linecap="round" stroke-linejoin="round" class="lucide lucide-eye"><path d="M2 12s3-7 10-7 10 7 10 7-3 7-10 7-10-7-10-7Z"/><circle cx="12" cy="12" r="3"/></svg></symbol>
  <!-- + eye-off -->
  <symbol id="eye-off" viewBox="0 0 24 24"><svg xmlns="http://www.w3.org/2000/svg" width="24" height="24" viewBox="0 0 24 24" fill="none" stroke="currentColor" stroke-width="2" stroke-linecap="round" stroke-linejoin="round" class="lucide lucide-eye-off"><path d="M9.88 9.88a3 3 0 1 0 4.24 4.24"/><path d="M10.73 5.08A10.43 10.43 0 0 1 12 5c7 0 10 7 10 7a13.16 13.16 0 0 1-1.67 2.68"/><path d="M6.61 6.61A13.526 13.526 0 0 0 2 12s3 7 10 7a9.74 9.74 0 0 0 5.39-1.61"/><line x1="2" x2="22" y1="2" y2="22"/></svg></symbol>
  <!-- + shopping-basket -->
  <symbol id="shopping-basket" viewBox="0 0 24 24"><svg xmlns="http://www.w3.org/2000/svg" width="24" height="24" viewBox="0 0 24 24" fill="none" stroke="currentColor" stroke-width="2" stroke-linecap="round" stroke-linejoin="round" class="lucide lucide-shopping-basket"><path d="m15 11-1 9"/><path d="m19 11-4-7"/><path d="M2 11h20"/><path d="m3.5 11 1.6 7.4a2 2 0 0 0 2 1.6h9.8a2 2 0 0 0 2-1.6l1.7-7.4"/><path d="M4.5 15.5h15"/><path d="m5 11 4-7"/><path d="m9 11 1 9"/></svg></symbol>
  <!-- + tag -->
  <symbol id="tag" viewBox="0 0 24 24"><svg xmlns="http://www.w3.org/2000/svg" width="24" height="24" viewBox="0 0 24 24" fill="none" stroke="currentColor" stroke-width="2" stroke-linecap="round" stroke-linejoin="round" class="lucide lucide-tag"><path d="M12.586 2.586A2 2 0 0 0 11.172 2H4a2 2 0 0 0-2 2v7.172a2 2 0 0 0 .586 1.414l8.704 8.704a2.426 2.426 0 0 0 3.42 0l6.58-6.58a2.426 2.426 0 0 0 0-3.42z"/><circle cx="7.5" cy="7.5" r=".5" fill="currentColor"/></svg></symbol>
  <!-- + pie-chart (ventas) -->
  <symbol id="pie-chart" viewBox="0 0 24 24"><svg xmlns="http://www.w3.org/2000/svg" width="24" height="24" viewBox="0 0 24 24" fill="none" stroke="currentColor" stroke-width="2" stroke-linecap="round" stroke-linejoin="round" class="lucide lucide-pie-chart"><path d="M21.21 15.89A10 10 0 1 1 8 2.83"/><path d="M22 12A10 10 0 0 0 12 2v10z"/></svg></symbol>
  <!-- + bar-chart (lista compras) -->
  <symbol id="bar-chart" viewBox="0 0 24 24"><svg xmlns="http://www.w3.org/2000/svg" width="24" height="24" viewBox="0 0 24 24" fill="none" stroke="currentColor" stroke-width="2" stroke-linecap="round" stroke-linejoin="round" class="lucide lucide-bar-chart-big"><path d="M3 3v18h18"/><rect width="4" height="7" x="7" y="10" rx="1"/><rect width="4" height="12" x="15" y="5" rx="1"/></svg></symbol>
  <!-- + package -->
  <symbol id="package" viewBox="0 0 24 24"><svg xmlns="http://www.w3.org/2000/svg" width="24" height="24" viewBox="0 0 24 24" fill="none" stroke="currentColor" stroke-width="2" stroke-linecap="round" stroke-linejoin="round" class="lucide lucide-package-open"><path d="M12 22v-9"/><path d="M15.17 2.21a1.67 1.67 0 0 1 1.63 0L21 4.57a1.93 1.93 0 0 1 0 3.36L8.82 14.79a1.655 1.655 0 0 1-1.64 0L3 12.43a1.93 1.93 0 0 1 0-3.36z"/><path d="M20 13v3.87a2.06 2.06 0 0 1-1.11 1.83l-6 3.08a1.93 1.93 0 0 1-1.78 0l-6-3.08A2.06 2.06 0 0 1 4 16.87V13"/><path d="M21 12.43a1.93 1.93 0 0 0 0-3.36L8.83 2.2a1.64 1.64 0 0 0-1.63 0L3 4.57a1.93 1.93 0 0 0 0 3.36l12.18 6.86a1.636 1.636 0 0 0 1.63 0z"/></svg></symbol>
  
</svg>